<svg xmlns="http://www.w3.org/2000/svg" id="svg3473" height="892.18" viewBox="0 0 546.08 892.18" width="546.08" version="1.1"><defs id="defs3477"><filter id="filter4498" height="1.06" width="1.1" y="-0.03" x="-0.05" color-interpolation-filters="sRGB"><feGaussianBlur id="feGaussianBlur4500" stdDeviation="10.06"/></filter></defs><path id="path3513-6" d="m447.2 867.29c-4.95-0.47-44.55-1.08-88-1.37-44.29-0.29-82.51-0.96-87-1.53-4.4-0.56-25.1-1.68-46-2.49-35.66-1.38-40.77-1.35-83 0.5-56.29 2.46-62.86 2.5-64.93 0.43-2.23-2.23-0.37-5.25 4.51-7.3 2.14-0.9 3.9-1.97 3.9-2.38 0.01-0.41 1.54-2.74 3.4-5.19 1.87-2.44 6.2-9.54 9.64-15.76 7.25-13.13 7.64-16.02 3.4-25.21-1.81-3.93-2.74-7.67-2.8-11.22-0.07-5.04-0.23-5.36-2.98-5.96-2.83-0.62-2.89-0.76-2.24-5.28 0.37-2.55 0.94-6.8 1.27-9.45l0.6-4.8-3.4 1.97c-12.06 6.99-28.1 6.59-40.05-0.99-18.97-12.04-24.81-34.25-14.4-54.77 2.64-5.2 3.59-8.72 4.51-16.59 1.24-10.68 5.04-33.62 7.53-45.44 0.83-3.96 1.51-7.55 1.51-7.98 0-0.43-3.26-2.27-7.25-4.09-3.99-1.81-7.47-3.49-7.74-3.72-0.96-0.82 20.49-41.21 21.77-40.99 1.78 0.31 36.7-62.36 35.58-63.85-0.47-0.63-3.93-4.92-7.69-9.54-15.43-18.97-30.94-45.45-39.35-67.22-11.27-29.16-16.67-56.41-17.95-90.53-0.4-10.57-1.09-18.14-1.65-18.14-0.55 0-0.7-1.35-0.34-3.14 0.35-1.73-0.35-9.49-1.55-17.25-2.94-19.1-3.22-55.48-0.52-69.11 5.95-30.07 13.68-47.53 28.87-65.18 9.97-11.59 55.39-52.79 91.63-83.12l23.31-19.51 3.32 1.58c4.59 2.19 10.05 7.16 12.69 11.55 1.22 2.02 2.34 3.85 2.5 4.06 0.16 0.21 9.19-8.12 20.08-18.51 31.68-30.23 47.09-42.99 49.26-40.78 0.53 0.54 0.28 3.57-0.63 7.41-1.8 7.68-1.37 15.78 1.03 19.44l1.72 2.63 3.2-2.26c10.48-7.41 28.42-27.39 39.66-44.18l5.27-7.87 2.37 2.87c10.85 13.17 21.03 31.88 24.53 45.07l2.33 8.8 3.01-9.75c1.66-5.36 3.33-9.75 3.72-9.75 0.99 0 81.52 80.77 107.68 108.01 11.9 12.38 24.36 25.88 27.71 30 23.13 28.48 36.17 56.26 41.54 88.49 1.7 10.22 1.4 30.45-0.61 40.5-0.94 4.68-1.94 12.9-2.22 18.28-0.42 7.9-0.85 9.96-2.25 10.7-1.43 0.76-1.85 3.02-2.41 12.98-3.38 59.77-22.29 110.17-57.99 154.54-5.49 6.82-6.28 8.29-5.38 10 0.58 1.1 6.02 9.65 12.08 19 6.06 9.35 13.9 22.4 17.41 29s11.53 19.2 17.82 28c6.29 8.8 11.44 16.28 11.44 16.62 0 0.34-4.28 2.56-9.5 4.93-5.22 2.37-9.5 4.9-9.5 5.61 0 0.72 1.1 5.11 2.45 9.76 3.75 12.93 7.23 30.59 9.1 46.07 1.35 11.18 2.16 14.71 4.02 17.5 5.52 8.26 6.89 12.93 6.91 23.5 0.02 9.19-0.24 10.55-3.17 16.73-3.92 8.28-11.2 15.68-19.61 19.93-5.25 2.66-7.63 3.21-15.57 3.63l-9.37 0.5 0.59 6.61c0.33 3.63 0.88 7.82 1.23 9.3 0.57 2.41 0.29 2.79-2.72 3.59-3.04 0.81-3.34 1.22-3.16 4.32 0.11 1.88 1.57 6.65 3.25 10.61 3.4 8 3.78 12.31 1.56 17.64-0.82 1.97-1.5 4.66-1.5 5.96 0 3.54 9.65 22.69 11.44 22.69 2.86 0 12.25 4.76 12.94 6.55 0.42 1.1 0.08 2.42-0.88 3.37-1.27 1.28-4.35 1.6-16.29 1.69-8.09 0.07-18.77-0.26-23.72-0.73z" filter="url(#filter4498)" stroke="#000"/><rect id="rect4502" height="184.86" width="332.98" y="272.01" x="99.93" fill="#fff"/><path id="path3513" d="m438.8 863.32c-4.95-0.47-44.55-1.08-88-1.37-44.29-0.29-82.51-0.96-87-1.53-4.4-0.56-25.1-1.68-46-2.49-35.66-1.38-40.77-1.35-83 0.5-56.29 2.46-62.86 2.5-64.93 0.43-2.23-2.23-0.37-5.25 4.51-7.3 2.14-0.9 3.9-1.97 3.9-2.38 0.01-0.41 1.54-2.74 3.4-5.19 1.87-2.44 6.2-9.54 9.64-15.76 7.25-13.13 7.64-16.02 3.4-25.21-1.81-3.93-2.74-7.67-2.8-11.22-0.07-5.04-0.23-5.36-2.98-5.96-2.83-0.62-2.89-0.76-2.24-5.28 0.37-2.55 0.94-6.8 1.27-9.45l0.6-4.8-3.4 1.97c-12.06 6.99-28.1 6.59-40.05-0.99-18.97-12.04-24.81-34.25-14.4-54.77 2.64-5.2 3.59-8.72 4.51-16.59 1.24-10.68 5.04-33.62 7.53-45.44 0.83-3.96 1.51-7.55 1.51-7.98 0-0.43-3.26-2.27-7.25-4.09-3.99-1.81-7.47-3.49-7.74-3.72-0.96-0.82 20.49-41.21 21.77-40.99 1.78 0.31 36.7-62.36 35.58-63.85-0.47-0.63-3.93-4.92-7.69-9.54-15.43-18.97-30.94-45.45-39.35-67.22-11.27-29.16-16.67-56.41-17.95-90.53-0.4-10.57-1.09-18.14-1.65-18.14-0.55 0-0.7-1.35-0.34-3.14 0.35-1.73-0.35-9.49-1.55-17.25-2.94-19.1-3.22-55.48-0.52-69.11 5.95-30.07 13.68-47.53 28.87-65.18 9.97-11.59 55.39-52.79 91.63-83.12l23.31-19.51 3.32 1.58c4.59 2.19 10.05 7.16 12.69 11.55 1.22 2.02 2.34 3.85 2.5 4.06 0.16 0.21 9.19-8.12 20.08-18.51 31.68-30.23 47.09-42.99 49.26-40.78 0.53 0.54 0.28 3.57-0.63 7.41-1.8 7.68-1.37 15.78 1.03 19.44l1.72 2.63 3.2-2.26c10.48-7.41 28.42-27.39 39.66-44.18l5.27-7.87 2.37 2.87c10.85 13.17 21.03 31.88 24.53 45.07l2.33 8.8 3.01-9.75c1.66-5.36 3.33-9.75 3.72-9.75 0.99 0 81.52 80.77 107.68 108.01 11.9 12.38 24.36 25.88 27.71 30 23.13 28.48 36.17 56.26 41.54 88.49 1.7 10.22 1.4 30.45-0.61 40.5-0.94 4.68-1.94 12.9-2.22 18.28-0.42 7.9-0.85 9.96-2.25 10.7-1.43 0.76-1.85 3.02-2.41 12.98-3.38 59.77-22.29 110.17-57.99 154.54-5.49 6.82-6.28 8.29-5.38 10 0.58 1.1 6.02 9.65 12.08 19 6.06 9.35 13.9 22.4 17.41 29s11.53 19.2 17.82 28c6.29 8.8 11.44 16.28 11.44 16.62 0 0.34-4.28 2.56-9.5 4.93-5.22 2.37-9.5 4.9-9.5 5.61 0 0.72 1.1 5.11 2.45 9.76 3.75 12.93 7.23 30.59 9.1 46.07 1.35 11.18 2.16 14.71 4.02 17.5 5.52 8.26 6.89 12.93 6.91 23.5 0.02 9.19-0.24 10.55-3.17 16.73-3.92 8.28-11.2 15.68-19.61 19.93-5.25 2.66-7.63 3.21-15.57 3.63l-9.37 0.5 0.59 6.61c0.33 3.63 0.88 7.82 1.23 9.3 0.57 2.41 0.29 2.79-2.72 3.59-3.04 0.81-3.34 1.22-3.16 4.32 0.11 1.88 1.57 6.65 3.25 10.61 3.4 8 3.78 12.31 1.56 17.64-0.82 1.97-1.5 4.66-1.5 5.96 0 3.54 9.65 22.69 11.44 22.69 2.86 0 12.25 4.76 12.94 6.55 0.42 1.1 0.08 2.42-0.88 3.37-1.27 1.28-4.35 1.6-16.29 1.69-8.09 0.07-18.77-0.26-23.72-0.73zm-79.21-411.37c9.51-2.01 18.71-6.84 25.99-13.63l6.22-5.8-29.08-0.04c-38.98-0.06-59.61-2.24-64.73-6.84-2.01-1.8-10.09-14.96-13.95-22.71-1.37-2.75-4.83-12.09-7.7-20.75-2.86-8.66-5.32-15.75-5.46-15.75-0.14 0-0.14 3.38 0 7.52 0.27 8.05 4.44 22.58 9.18 31.98 9.16 18.17 23.75 32.62 41.41 41 12.97 6.16 25.19 7.77 38.13 5.03zm-157.46-4.05c28.32-6.68 52.46-30.7 63.28-62.98 2.32-6.92 3.2-20.52 1.45-22.27-1.21-1.21-4.23 3.37-6.94 10.52-9.92 26.22-10.87 28.26-18.6 39.78-4.38 6.53-8.99 12.41-10.24 13.07-5.75 2.99-17.67 3.72-49.64 3.02-17.4-0.38-33.21-0.93-35.13-1.22l-3.5-0.53 6.66 6.47c7.01 6.81 15.28 11.48 24.95 14.08 7.06 1.9 19.8 1.93 27.72 0.06zm198.33-32.23c4.51-11.75 5.35-16.86 5.29-32.25-0.07-16.68-1.93-25.3-8.69-40.13-3.73-8.2-4.12-8.66-7.59-9.24-5.86-0.97-30.93-0.72-44.86 0.44-12.13 1.01-41.54 6.34-51.3 9.29l-4.5 1.36-0.82 7.39c-1.11 10.06-0.16 30.08 1.77 37.39 3.45 13.06 11.11 24.18 19.66 28.55 5.11 2.61 20.56 3.64 57.42 3.81l31.03 0.14 2.59-6.75zm-95.8-33.21c-3.07-1.27-5.36-4.97-5.36-8.66 0-4.69 5.08-8.77 9.94-8 4.51 0.72 7.06 3.81 7.06 8.57 0 5.93-6.29 10.31-11.64 8.09zm-81.22 33.73c6.3-3.69 12.59-10.89 15.83-18.1 4.97-11.06 6.23-17.85 6.76-36.34l0.49-17.18-8.36-2.52c-27.04-8.13-55.3-12.56-80.51-12.6l-12.15-0.02-4.48 8.75c-12.37 24.18-14.96 47.46-7.74 69.41l3.18 9.66 9.16 0.6c5.04 0.33 10.96 0.77 13.16 0.98s16.64 0.29 32.08 0.18l28.08-0.2 4.47-2.62zm2.41-36.01c-3.91-3.44-4.3-7.71-1.05-11.57 5.4-6.42 15.5-2.62 15.5 5.83 0 1.18-1.32 3.46-2.92 5.07-3.6 3.6-7.91 3.85-11.52 0.67zm39.95-47c-0.34-1.24-2.46-6.04-4.7-10.66-8.1-16.73-22.79-27.59-41.64-30.77-8.2-1.38-10.11-1.39-18.06-0.05-10 1.69-21.73 6.38-30.52 12.22-6.16 4.09-19.33 16.1-18.53 16.9 0.25 0.25 8.78 0.96 18.95 1.58 35.05 2.12 73.16 7.17 82.49 10.93 2.75 1.11 6.72 2.04 8.82 2.06 3.49 0.04 3.76-0.15 3.19-2.2zm15.65 0.37c11.43-3.93 47.63-7.11 81.13-7.11 28.76-0.01 27.44 0.88 15.95-10.77-6.58-6.67-15.72-13.47-21.73-16.16-12.53-5.61-15.15-6.3-25.72-6.81-12.25-0.59-16.73 0.27-27.58 5.28-10.12 4.68-20.46 15.01-25.47 25.46-6.29 13.12-6.19 13.43 3.43 10.12zM438.8 863.32 438.8 863.32" fill="#f7ba81"/><path id="path3511" d="m438.8 863.32c-4.95-0.47-44.55-1.08-88-1.37-44.29-0.29-82.51-0.96-87-1.53-4.4-0.56-25.1-1.68-46-2.49-35.66-1.38-40.77-1.35-83 0.5-56.29 2.46-62.86 2.5-64.93 0.43-2.23-2.23-0.37-5.25 4.51-7.3 2.14-0.9 3.9-1.97 3.9-2.38 0.01-0.41 1.54-2.74 3.4-5.19 1.87-2.44 6.2-9.54 9.64-15.76 7.25-13.13 7.64-16.02 3.4-25.21-1.81-3.93-2.74-7.67-2.8-11.22-0.07-4.98-0.25-5.36-2.86-5.93-3.21-0.7-3.21-0.7-1.37-12.79 1.28-8.41 1.56-9.07 5.87-13.5 5.5-5.66 9.35-12.98 10.29-19.57 0.66-4.58 0.58-4.85-1.18-4-1.04 0.5-5.04 0.91-8.89 0.91-5.73 0-7.59-0.42-10.27-2.33-10.6-7.56-9.05-25.57 2.65-30.73 4.97-2.19 4.43-3.1-4.14-7.03-5.52-2.53-7.38-2.86-16.23-2.88-9.16-0.02-10.55 0.24-16.64 3.12-3.65 1.73-8.38 4.99-10.5 7.25-3.72 3.95-5.36 4.97-5.36 3.33 0-1.29 7.26-8.35 11-10.71 13.56-8.53 32.6-7.73 46.05 1.93 2.72 1.96 5.18 3.56 5.45 3.56 0.27 0 0.5-1.97 0.5-4.37s0.63-8.14 1.4-12.75c0.77-4.61 1.65-10.18 1.96-12.38l0.57-4-35.21-16.92c-19.37-9.31-35.43-17.1-35.7-17.32-0.97-0.8 20.5-41.2 21.77-40.98 0.74 0.13 8.74-13.14 18.86-31.28 9.67-17.32 17.7-31.63 17.85-31.79 0.15-0.16 5.61 5.04 12.14 11.56 27.28 27.23 55.92 45.37 89.87 56.95 38.81 13.23 84.99 15.33 127 5.78 3.85-0.88 8.8-2.19 11-2.92 2.2-0.73 6.48-2.12 9.5-3.09 29.79-9.54 63.32-30.99 89.77-57.45 12.7-12.7 13.16-13.05 14.33-10.83 0.67 1.26 6.18 9.94 12.24 19.29 6.06 9.35 13.9 22.4 17.41 29s11.53 19.2 17.82 28c6.29 8.8 11.44 16.25 11.44 16.57 0 0.61-24.86 12.4-55.8 26.46-15.45 7.02-19.18 9.09-18.68 10.37 0.34 0.88 1.07 3.85 1.62 6.6 0.55 2.75 2.6 11.37 4.54 19.16l3.54 14.16 4.32-3.3c7.17-5.48 12.54-7.01 24.47-7.01 9.88 0 10.93 0.2 17.21 3.29 3.99 1.97 8.11 4.96 10.22 7.42 4.48 5.23 3.7 6.28-1.22 1.63-9.94-9.4-23.72-12.96-36.73-9.48-5.64 1.51-11.81 4.58-15.45 7.69-2.02 1.73-2.19 2.25-1 3.01 0.8 0.5 1.92 0.92 2.51 0.93 1.78 0.03 7.65 6.32 9.09 9.73 2.67 6.35 0.62 16.13-4.29 20.49-4.62 4.1-13.28 5.97-17.42 3.75-2.48-1.33-2.56 0.38-0.29 6.26 4.06 10.51 13.76 19.68 25.18 23.81 5.3 1.91 6.03 2.45 4.5 3.27-1.01 0.54-1.92 1.05-2.04 1.12-0.11 0.08 0.67 3.5 1.73 7.6 2.52 9.72 2.52 9.76-1.28 10.77-2.92 0.78-3.23 1.21-3.06 4.29 0.11 1.88 1.57 6.65 3.25 10.61 3.4 8 3.78 12.31 1.56 17.64-0.82 1.97-1.5 4.66-1.5 5.96 0 3.54 9.65 22.69 11.44 22.69 2.86 0 12.25 4.76 12.94 6.55 0.42 1.1 0.08 2.42-0.88 3.37-1.27 1.28-4.35 1.6-16.29 1.69-8.09 0.07-18.77-0.26-23.72-0.73zm2.09-130.09c4.48-3.07 6.41-6.8 6.41-12.39 0-6.02-2.98-10.7-8.57-13.42-5-2.44-6.81-2.45-12.03-0.08-10.22 4.64-12.22 17.65-3.85 25 3.05 2.68 4.28 3.09 9.17 3.09 4.19 0 6.49-0.57 8.87-2.2zm-336.65-2.74c6.61-6.61 6.65-14.24 0.12-21.11-3.62-3.8-3.99-3.95-10.24-3.95-6.13 0-6.69 0.2-10.14 3.65-6.46 6.46-6.36 15.41 0.24 21.6 3.71 3.48 4.43 3.75 10.03 3.75 5.7 0 6.26-0.22 9.98-3.94zm-42.22 42.22c1.78-0.22 4.93-0.22 7-0.01 2.07 0.22 0.62 0.4-3.23 0.4-3.85 0-5.55-0.17-3.77-0.39zm407.09-1.97c0.72-0.29 1.58-0.25 1.92 0.08 0.33 0.33-0.26 0.57-1.31 0.53-1.16-0.05-1.4-0.28-0.6-0.6zm-388.72-0.69c1.03-0.92 6.92-3.63 6.92-3.18 0 0.58-5.54 3.55-6.62 3.55-0.39 0-0.53-0.17-0.3-0.37zm394.42-0.62c2.75-1.18 4.33-1.18 2.5 0-0.82 0.53-2.17 0.94-3 0.91-0.99-0.04-0.82-0.35 0.5-0.91zm12.22-6.05c1.22-1.29 2.42-2.14 2.65-1.89 0.24 0.24-0.76 1.3-2.22 2.34l-2.65 1.89 2.22-2.34zm5.78-4.95c1-1.1 2.04-2 2.31-2s-0.31 0.9-1.31 2-2.03 2-2.31 2 0.31-0.9 1.31-2zm4.6-6.44c1.16-1.96 2.29-3.56 2.53-3.56 0.71 0-2.54 5.83-3.62 6.5-0.55 0.34-0.06-0.98 1.09-2.94zm3-4.56c-0.04-0.28 0.57-2.52 1.35-5 0.78-2.47 1.43-3.6 1.44-2.5 0.02 1.74-2.62 8.82-2.79 7.5zm3.23-16.5c0-3.85 0.19-5.3 0.4-3.23s0.21 5.22-0.01 7c-0.22 1.78-0.4 0.08-0.39-3.77zm-1.17-9.5c0-1.37 0.23-1.94 0.5-1.25s0.28 1.81 0 2.5-0.5 0.13-0.5-1.25zm-1.53-4.54c-0.96-2.51-0.68-3.16 0.5-1.14 0.58 1 0.85 2.04 0.59 2.29-0.26 0.26-0.75-0.26-1.09-1.16zm-4.11-8.08c-0.95-1.44-1.22-2.32-0.62-1.94 1.15 0.71 3.48 4.57 2.76 4.57-0.23 0-1.19-1.18-2.14-2.62zm-224.02-175.06c-1.65-0.25-5.16-1.08-7.81-1.85-2.64-0.77-6.08-1.15-7.63-0.84-1.58 0.32-3.12 0.08-3.5-0.54-0.37-0.61-1.78-1.1-3.13-1.1s-3.24-0.44-4.19-0.97c-0.96-0.54-4.77-2.31-8.49-3.94-4.48-1.97-6.75-3.53-6.75-4.64 0-1.14 0.57-1.51 1.75-1.14 0.96 0.29 7.15 2.36 13.75 4.58 18.34 6.18 36.09 7.87 47.53 4.51 6.53-1.91 12.15-2.29 12.64-0.86 0.86 2.51-2.46 4.66-8.72 5.64-7.51 1.18-21.13 1.78-25.45 1.14zm48.5-102.38c-12.31-1.33-21.47-3.74-23.8-6.27-2.47-2.69-9.18-13.69-13.05-21.38-1.6-3.18-5.25-12.87-8.12-21.53-2.86-8.66-5.39-15.75-5.6-15.75-0.22 0-0.11 2.09 0.24 4.63 0.51 3.72 0.36 4.54-0.77 4.17-0.86-0.28-1.75-2.85-2.29-6.63-0.49-3.4-1.28-6.17-1.76-6.17-1.44 0-4.65 6.01-7.48 13.99-6.23 17.57-10.29 26.07-17.76 37.2-8.4 12.51-9.05 13.01-19.03 14.77-16.01 2.81-101.11-0.68-122.91-5.05-4.28-0.86-10.58-2.79-10.68-3.28-0.01-0.07-2.64-13.06-5.83-28.87-3.19-15.81-6.02-28.96-6.29-29.23-0.42-0.42-16.36-5.39-48.21-15.03l-8.86-2.68 0.61-3.04c0.33-1.67-0.37-9.4-1.57-17.16-2.94-19.1-3.22-55.48-0.52-69.11 5.95-30.07 13.68-47.53 28.87-65.18 9.97-11.59 55.39-52.79 91.63-83.12l23.31-19.51 3.32 1.58c4.59 2.19 10.05 7.16 12.69 11.55 1.22 2.02 2.34 3.85 2.5 4.06 0.16 0.21 9.19-8.12 20.08-18.51 31.68-30.23 47.09-42.99 49.26-40.78 0.53 0.54 0.28 3.57-0.63 7.41-1.8 7.68-1.37 15.78 1.03 19.44l1.72 2.63 3.2-2.26c10.48-7.41 28.42-27.39 39.66-44.18l5.27-7.87 2.37 2.87c10.85 13.17 21.03 31.88 24.53 45.07l2.33 8.8 3.01-9.75c1.66-5.36 3.33-9.75 3.72-9.75 0.99 0 81.52 80.77 107.68 108.01 11.9 12.38 24.36 25.88 27.71 30 23.13 28.48 36.17 56.26 41.54 88.49 1.7 10.22 1.4 30.45-0.61 40.5-0.94 4.68-1.94 12.92-2.22 18.32l-0.52 9.82-3.13 1.4c-1.72 0.77-13.26 4.4-25.63 8.07s-22.62 6.76-22.77 6.88c-0.15 0.12-3.43 12.99-7.3 28.61s-7.64 29.01-8.38 29.76c-3.01 3.04-20 4.22-66.55 4.61-25.02 0.21-49.32-0.03-54-0.53zm104.16-10.58 8.66-0.61 3.18-9.6c5.01-15.11 7.37-29.67 9.35-57.83l0.44-6.18-9.65-3.05c-14.89-4.7-43.15-10.43-43.15-8.75 0 0.2 1.61 3.85 3.57 8.1 1.97 4.25 3.4 7.9 3.19 8.11-0.21 0.21-2.07-3.38-4.14-7.97-3.57-7.93-3.95-8.38-7.44-8.96-5.88-0.97-30.93-0.73-44.88 0.44-12.13 1.01-41.54 6.34-51.3 9.29l-4.5 1.36-0.82 7.39c-1.11 10.06-0.16 30.08 1.77 37.39 3.45 13.06 11.11 24.18 19.66 28.55 2.36 1.21 7.55 2.19 15 2.83 11.47 0.99 84.91 0.61 101.05-0.52zm-120.8-38.33c-3.07-1.27-5.36-4.97-5.36-8.66 0-4.69 5.08-8.77 9.94-8 4.51 0.72 7.06 3.81 7.06 8.57 0 5.93-6.29 10.31-11.64 8.09zm100.8-10.03c0-1.37 0.23-1.94 0.5-1.25s0.28 1.81 0 2.5-0.5 0.13-0.5-1.25zm-2.08-11.58c0.05-1.16 0.28-1.4 0.6-0.6 0.29 0.72 0.25 1.58-0.08 1.92-0.33 0.33-0.57-0.26-0.53-1.31zm-1.51-4.99c-0.37-1.47-0.48-2.86-0.24-3.09 0.24-0.24 0.73 0.77 1.1 2.24 0.37 1.47 0.48 2.86 0.24 3.09-0.24 0.24-0.73-0.77-1.1-2.24zm-178.43 60.34c6.3-3.69 12.59-10.89 15.83-18.1 4.97-11.06 6.23-17.85 6.76-36.34l0.49-17.18-8.36-2.52c-27.06-8.14-55.3-12.56-80.57-12.6l-12.21-0.02-4.93 10.25c-2.71 5.64-5.43 11.38-6.04 12.75l-1.11 2.5 0.57-2.5c0.31-1.37 2.77-7.11 5.46-12.75l4.89-10.25h-2.91c-9.48 0-32.87 4.09-46.86 8.19l-7.35 2.16 0.65 13.07c1.25 25.03 3.85 42.87 8.1 55.72 1.32 3.99 1.99 4.73 4.74 5.22 2.89 0.52 25.62 2.54 52.2 4.65 5.5 0.44 22.64 0.7 38.08 0.58l28.08-0.21 4.47-2.62zm2.41-36.01c-3.91-3.44-4.3-7.71-1.05-11.57 5.4-6.42 15.5-2.62 15.5 5.83 0 1.18-1.32 3.46-2.92 5.07-3.6 3.6-7.91 3.85-11.52 0.67zm-96.48-11.33c0.05-1.16 0.28-1.4 0.6-0.6 0.29 0.72 0.25 1.58-0.08 1.92-0.33 0.33-0.57-0.26-0.53-1.31zm1.06-4.42c0-0.82 0.39-2.4 0.86-3.5 0.54-1.26 0.86-1.45 0.86-0.5 0 0.83-0.39 2.4-0.86 3.5-0.54 1.26-0.86 1.45-0.86 0.5zm348.48-24.61 19.12-5.68-0.41-13.61c-0.96-31.76-7.24-51.91-22.51-72.18-10.24-13.6-26.97-27.26-36.12-29.48-1.91-0.47-4.63-3.09-8.61-8.31-10.64-13.97-25.24-26.15-38.62-32.21-12.55-5.69-21.39-7.38-38.47-7.37-15.02 0.01-15.9 0.13-28.41 3.83-7.1 2.1-19.9 6.73-28.43 10.28-17.05 7.1-21.94 8.35-32.54 8.32-18.95-0.05-63.39-10.12-92.03-20.86-14.7-5.51-33.88-6.75-48.09-3.12-14.32 3.66-28.91 13.41-44.66 29.81-17.03 17.75-29.67 37.12-35.28 54.11-5.32 16.09-5.91 20.84-5.98 47.76l-0.06 25.19 18.79 6.16c21.19 6.95 23.8 7.11 27.21 1.7 2.54-4.03 10.87-8.31 20-10.27 3.93-0.84 15.54-1.79 26.5-2.15l19.5-0.65 7.34-7.41c15.89-16.04 33.96-24.26 53.36-24.26 16.75 0 31.62 6.31 41.92 17.78 4.41 4.91 11.87 17.9 13.34 23.22 0.38 1.38-1.41-1.72-3.98-6.88-8.91-17.9-23.1-28.57-42.32-31.81-8.2-1.38-10.11-1.39-18.06-0.05-10 1.69-21.73 6.38-30.52 12.22-6.16 4.09-19.33 16.1-18.53 16.9 0.25 0.25 8.78 0.96 18.95 1.58 35.12 2.12 72.98 7.14 82.75 10.97 5.29 2.07 12.24 2.77 12.24 1.23 0-0.45 1.35-0.63 2.99-0.39 2.41 0.35 3.19-0.02 4.02-1.92 0.99-2.26 1.01-2.25 0.49 0.39-0.66 3.34 0.19 3.44 7.65 0.87 11.43-3.93 47.63-7.11 81.13-7.11 28.76-0.01 27.44 0.88 15.95-10.77-6.58-6.67-15.72-13.47-21.73-16.16-12.53-5.61-15.15-6.3-25.72-6.81-12.25-0.59-16.73 0.27-27.58 5.28-8.94 4.13-20.22 14.92-24.72 23.65-1.61 3.13-3.1 5.52-3.3 5.32-1.23-1.23 7.24-13.98 13.29-20.04 11.21-11.21 23.63-16.47 38.88-16.47 10.39 0 16.63 1.48 27.16 6.44 10.73 5.05 21.23 13.2 28.37 22l5.21 6.42 6.71 0.58c29.64 2.56 39.58 4.48 48.6 9.38 2.7 1.47 6.01 4.34 7.38 6.42 1.98 2.99 3.13 3.77 5.61 3.8 1.71 0.02 11.72-2.52 22.24-5.64zm-198.12-59.08c-0.84-2.02-1.19-3.98-0.76-4.35 0.43-0.37 5.5-2.52 11.27-4.77s23.69-9.29 39.82-15.65c16.13-6.36 29.65-11.55 30.05-11.55 1.19 0 3.41 7.13 2.48 7.97-0.47 0.43-10.08 4.41-21.35 8.86-37.6 14.83-59 23.16-59.49 23.16-0.27 0-1.18-1.65-2.02-3.68zm-37.49-7.22c-9.62-3.71-27.85-10.71-40.5-15.55-12.65-4.84-23.11-8.89-23.25-9.01-0.14-0.12 0.37-1.98 1.14-4.13 0.83-2.33 1.94-3.79 2.75-3.61 1.64 0.37 80.2 30.32 80.73 30.78 0.63 0.55-0.72 4.83-2.08 6.59-1.19 1.54-2.76 1.12-18.79-5.07z" fill="#eab17a"/><path id="path3509" d="m438.8 863.32c-4.95-0.47-44.55-1.08-88-1.37-44.29-0.29-82.51-0.96-87-1.53-4.4-0.56-25.1-1.68-46-2.49-35.66-1.38-40.77-1.35-83 0.5-56.29 2.46-62.86 2.5-64.93 0.43-2.23-2.23-0.37-5.25 4.51-7.3 2.14-0.9 3.9-1.97 3.9-2.38 0.01-0.41 1.54-2.74 3.4-5.19 1.87-2.44 6.2-9.54 9.64-15.76 7.25-13.13 7.64-16.02 3.4-25.21-1.81-3.93-2.74-7.67-2.8-11.22-0.07-4.98-0.25-5.36-2.86-5.93-3.17-0.7-3.18-0.73-1.49-12.09 1.16-7.83 1.41-8.35 6.51-13.75 6.07-6.41 10.01-14.2 10.87-21.5l0.6-5.04-3.85 1.96c-11.39 5.81-24.59-2.37-24.78-15.34-0.06-4.34 0.48-6.29 2.64-9.55 3.13-4.73 9.07-8.15 14.18-8.15h3.54v-5.63c0-3.1 0.71-10.08 1.57-15.51 0.86-5.43 1.43-10.59 1.25-11.45-0.19-0.93-8.48-5.45-20.32-11.09-39.3-18.72-48.97-23.31-49.98-23.68-1.45-0.54 19.67-41.62 21.26-41.35 0.74 0.13 8.71-13.07 18.89-31.32l17.61-31.54 11.61 11.6c39.66 39.63 85.1 61.91 138.61 67.96 11.52 1.3 38.37 1.31 50 0.01 55.75-6.21 101.01-28.93 143.36-71.97 5.15-5.23 9.54-9.06 9.75-8.51 0.22 0.55 5.65 9.1 12.07 19 6.42 9.9 14.55 23.4 18.06 30 3.51 6.6 11.53 19.2 17.82 28 6.29 8.8 11.44 16.29 11.44 16.64 0 0.35-5.74 3.22-12.75 6.38-28.93 13.02-60.8 27.76-61.57 28.47-0.78 0.72 4.46 25.73 8.15 38.84 1.64 5.83 2.1 6.47 5.91 8.17 5.89 2.64 9.7 8.7 9.66 15.38-0.05 9.69-6.35 16.63-15.83 17.41-3.06 0.25-6.23-0.07-7.53-0.76-2.16-1.16-2.22-1.08-1.53 2.14 2.83 13.23 13.57 24.83 27.36 29.53 3.64 1.24 6.17 2.28 5.62 2.3-3.35 0.14-3.6 1.66-1.55 9.08 2.65 9.56 2.63 9.72-1.2 10.74-2.92 0.78-3.23 1.21-3.06 4.29 0.11 1.88 1.57 6.65 3.25 10.61 3.4 8 3.78 12.31 1.56 17.64-0.82 1.97-1.5 4.66-1.5 5.96 0 3.54 9.65 22.69 11.44 22.69 2.86 0 12.25 4.76 12.94 6.55 0.42 1.1 0.08 2.42-0.88 3.37-1.27 1.28-4.35 1.6-16.29 1.69-8.09 0.07-18.77-0.26-23.72-0.73zm1.51-129.14c5.53-3.76 7.49-7.23 7.49-13.25 0-15.17-19.53-21.18-28.06-8.62-2.87 4.23-3.3 11.57-0.93 16.15 3.85 7.45 14.71 10.35 21.5 5.73zm-337.26-1.57c8.74-6.22 8.19-20.58-0.99-26.18-3.49-2.13-9.99-2.62-14.1-1.06-6.05 2.3-10.51 10.71-9.25 17.44 0.81 4.31 4.88 9.39 9.04 11.28 4.14 1.88 11.6 1.16 15.3-1.47zm-41.02 40.1c1.78-0.22 4.93-0.22 7-0.01 2.07 0.22 0.62 0.4-3.23 0.4-3.85 0-5.55-0.17-3.77-0.39zm407.08-1.97c0.72-0.29 1.58-0.25 1.92 0.08 0.33 0.33-0.26 0.57-1.31 0.53-1.16-0.05-1.4-0.28-0.6-0.6zm-388.72-0.69c1.03-0.92 6.92-3.63 6.92-3.18 0 0.58-5.54 3.55-6.62 3.55-0.39 0-0.53-0.17-0.3-0.37zm394.42-0.62c2.75-1.18 4.33-1.18 2.5 0-0.82 0.53-2.17 0.94-3 0.91-0.99-0.04-0.82-0.35 0.5-0.91zm12.22-6.05c1.22-1.29 2.42-2.14 2.65-1.89 0.24 0.24-0.76 1.3-2.22 2.34l-2.65 1.89 2.22-2.34zm5.78-4.95c1-1.1 2.04-2 2.31-2s-0.31 0.9-1.31 2-2.03 2-2.31 2 0.31-0.9 1.31-2zm4.6-6.44c1.16-1.96 2.29-3.56 2.53-3.56 0.71 0-2.54 5.83-3.62 6.5-0.55 0.34-0.06-0.98 1.09-2.94zm3-4.56c-0.04-0.28 0.57-2.52 1.35-5 0.78-2.47 1.43-3.6 1.44-2.5 0.02 1.74-2.62 8.82-2.79 7.5zm3.23-16.5c0-3.85 0.19-5.3 0.4-3.23s0.21 5.22-0.01 7c-0.22 1.78-0.4 0.08-0.39-3.77zm-1.17-9.5c0-1.37 0.23-1.94 0.5-1.25s0.28 1.81 0 2.5-0.5 0.13-0.5-1.25zm-1.53-4.54c-0.96-2.51-0.68-3.16 0.5-1.14 0.58 1 0.85 2.04 0.59 2.29-0.26 0.26-0.75-0.26-1.09-1.16zm-4.11-8.08c-0.95-1.44-1.22-2.32-0.62-1.94 1.15 0.71 3.48 4.57 2.76 4.57-0.23 0-1.19-1.18-2.14-2.62zm-230.71-176.93c-3.13-0.76-6.96-1.35-8.5-1.31-4.65 0.12-26.31-8.22-26.31-10.13 0-1.59 1.87-2.11 3.71-1.03 3.16 1.85 15.64 6.22 20.29 7.1 20.55 3.89 30.63 4.24 40 1.42 8.2-2.48 10.44-2.43 10.82 0.21 0.23 1.65-0.28 2.33-2 2.66-1.27 0.24-4.71 0.93-7.64 1.54-7.21 1.48-23.39 1.24-30.37-0.45zm55.19-100.5c-12.34-1.34-21.47-3.75-23.8-6.28-2.47-2.69-9.18-13.69-13.05-21.38-1.6-3.18-5.25-12.87-8.12-21.53-2.86-8.66-5.39-15.75-5.6-15.75-0.22 0-0.12 2.03 0.22 4.5 0.39 2.82 0.23 4.5-0.41 4.5-1.35 0-2.03-1.9-2.84-7.99-0.37-2.76-1.06-5.01-1.55-5.01-1.45 0-4.65 5.98-7.49 13.99-6.23 17.57-10.29 26.07-17.76 37.2-8.4 12.51-9.05 13.01-19.03 14.77-21.15 3.72-119.68-1.99-130.73-7.57-3.01-1.52-2.29 1.14-9.43-34.88-2.62-13.2-5.09-24.22-5.49-24.5-0.4-0.28-13.41-4.32-28.9-8.99l-28.17-8.49 0.58-2.89c0.32-1.59-0.4-9.24-1.6-17.01-2.94-19.1-3.22-55.48-0.52-69.11 5.95-30.07 13.68-47.53 28.87-65.18 9.97-11.59 55.39-52.79 91.63-83.12l23.31-19.51 3.32 1.58c4.59 2.19 10.05 7.16 12.69 11.55 1.22 2.02 2.34 3.85 2.5 4.06 0.16 0.21 9.19-8.12 20.08-18.51 31.68-30.23 47.09-42.99 49.26-40.78 0.53 0.54 0.28 3.57-0.63 7.41-1.8 7.68-1.37 15.78 1.03 19.44l1.72 2.63 3.2-2.26c10.48-7.41 28.42-27.39 39.66-44.18l5.27-7.87 2.37 2.87c10.85 13.17 21.03 31.88 24.53 45.07l2.33 8.8 3.01-9.75c1.66-5.36 3.33-9.75 3.72-9.75 0.99 0 81.52 80.77 107.68 108.01 11.9 12.38 24.36 25.88 27.71 30 23.13 28.48 36.17 56.26 41.54 88.49 1.7 10.22 1.4 30.45-0.61 40.5-0.94 4.68-1.94 12.92-2.22 18.33-0.47 8.81-0.74 9.92-2.65 10.75-1.17 0.51-12.71 4.12-25.63 8.02s-23.72 7.31-24 7.58c-0.27 0.27-3.67 13.38-7.54 29.15l-7.04 28.67-3.74 1.24c-2.06 0.68-8.34 1.71-13.96 2.3-13.45 1.4-92.83 2.1-103.72 0.92zm106.72-10.57 6.22-0.62 2.1-5.6c5.02-13.43 9.13-36.19 10.43-57.82l0.61-10.16-5.42-2.03c-25.14-9.41-60.97-13.11-97.35-10.07-12.13 1.01-41.54 6.34-51.3 9.29l-4.5 1.36-0.82 7.39c-1.11 10.06-0.16 30.08 1.77 37.39 3.45 13.06 11.11 24.18 19.66 28.55 2.36 1.21 7.54 2.18 15 2.82 11.68 1 92.43 0.62 103.61-0.49zm-123.36-38.35c-3.07-1.27-5.36-4.97-5.36-8.66 0-4.69 5.08-8.77 9.94-8 4.51 0.72 7.06 3.81 7.06 8.57 0 5.93-6.29 10.31-11.64 8.09zm-81.22 33.73c6.3-3.69 12.59-10.89 15.83-18.1 4.97-11.06 6.23-17.85 6.76-36.34l0.49-17.18-8.36-2.52c-31.89-9.59-59.99-13.3-93.23-12.31-20.95 0.63-33.37 2.51-50.52 7.65l-7.39 2.22 0.69 16.17c0.38 8.89 1.37 20.83 2.2 26.53 1.94 13.27 6.07 29.32 7.9 30.72 1.5 1.14 15.96 2.69 41 4.41 8.25 0.56 17.02 1.2 19.5 1.41 2.48 0.21 17.14 0.29 32.58 0.18l28.08-0.19 4.47-2.62zm2.41-36.01c-3.91-3.44-4.3-7.71-1.05-11.57 5.4-6.42 15.5-2.62 15.5 5.83 0 1.18-1.32 3.46-2.92 5.07-3.6 3.6-7.91 3.85-11.52 0.67zm246.46-38.13c6.32-1.86 14.81-4.37 18.88-5.59l7.4-2.21-0.58-15.67c-1.22-32.91-9.46-55.69-27.67-76.57-8.77-10.05-16.4-16.15-26.27-21-7.5-3.69-9.35-5.13-13.28-10.36-11.29-15.02-29.14-29.26-43.21-34.47-11.98-4.44-22.98-6.02-38.3-5.51-12.02 0.41-14.81 0.86-25.35 4.14-11.22 3.49-23.01 7.97-37.65 14.3-6.33 2.74-6.96 2.81-24 2.76-14.95-0.05-19.32-0.44-30-2.69-17.31-3.65-35.56-8.67-55-15.12-9.07-3.01-20.27-6.02-24.87-6.69-25.15-3.65-47.52 5.38-70.64 28.53-18.15 18.18-32.53 39.76-38.33 57.52-4.97 15.23-5.56 20.16-5.68 47.23l-0.12 25.73 18.07 6.02c9.94 3.31 19.51 6.02 21.26 6.02 2.49 0 4.25-1.07 8-4.85 8.26-8.34 18.14-10.76 48.31-11.8 10.43-0.36 18.08-1.06 18.94-1.73 1.1-0.85 1.26-0.82 0.69 0.13-0.51 0.85-0.02 1.25 1.56 1.27 1.27 0.01 11.98 0.68 23.81 1.49 35.6 2.45 63.73 6.25 74.25 10.02 8.47 3.04 20.29 3.21 29.25 0.42 12.6-3.92 47.72-6.94 80.81-6.95 19.58 0 24.65-0.27 24.06-1.25-0.57-0.95-0.41-0.99 0.69-0.14 0.79 0.61 7.07 1.39 13.94 1.72 13.72 0.67 25.94 2.69 35.98 5.95 5.21 1.69 7.53 3.18 11.52 7.35 6.2 6.49 7.77 6.62 23.52 1.98zm-90.14-22.37c-1.24-1.59-1.21-1.62 0.38-0.38 1.67 1.31 2.2 2.13 1.37 2.13-0.21 0-1-0.79-1.75-1.75zm-93.37-12.25c2.15-2.2 4.13-4 4.41-4s-1.26 1.8-3.41 4-4.13 4-4.41 4 1.26-1.8 3.41-4zm83.37 2.25c-1.24-1.59-1.21-1.62 0.38-0.38 0.96 0.75 1.75 1.54 1.75 1.75 0 0.82-0.82 0.29-2.13-1.37zm-209.87 0.37c0-0.21 0.79-1 1.75-1.75 1.59-1.24 1.62-1.21 0.38 0.38-1.31 1.67-2.13 2.2-2.13 1.37zm87.92-3.37-2.42-2.75 2.75 2.42c1.51 1.33 2.75 2.57 2.75 2.75 0 0.78-0.81 0.15-3.08-2.42zm74.83-14.97c1.79-0.22 4.71-0.22 6.5 0 1.79 0.22 0.33 0.4-3.25 0.4s-5.04-0.18-3.25-0.4zm-122-0.94c0.69-0.28 1.81-0.28 2.5 0s0.13 0.5-1.25 0.5-1.94-0.23-1.25-0.5zm12.52-0.03c0.97-0.25 2.32-0.24 3 0.04 0.68 0.27-0.12 0.48-1.77 0.46-1.65-0.02-2.2-0.24-1.23-0.5zm65.75-9.26c-0.67-1.62-1.04-3.49-0.82-4.15 0.32-0.96 45.17-19.27 75.11-30.67l5.81-2.21 1.5 3.6c0.83 1.98 1.28 3.81 1.02 4.08-0.37 0.37-80.65 32.27-81.26 32.3-0.07 0-0.68-1.32-1.35-2.94zm-61.86-17.31-39.33-15.14 0.6-3.02c0.33-1.66 1.02-3.44 1.54-3.95 0.83-0.83 79.21 28.37 81.29 30.29 1.29 1.2-1.32 7.08-3.11 7.02-0.91-0.03-19.35-6.87-40.99-15.2z" fill="#a4a2a1"/><path id="path3507" d="m445.8 863.27c-4.4-0.45-45.12-1.07-90.5-1.36-62.37-0.4-85.18-0.88-93.5-1.94-6.05-0.77-28.1-1.94-49-2.58-32.84-1.02-43.02-0.95-75 0.5-61.8 2.8-62.8 2.83-65.82 1.64-4.12-1.62-3.06-4.15 3.02-7.24 2.86-1.45 4.93-2.91 4.6-3.24s1.2-3.19 3.41-6.36c5.22-7.51 15.3-26.83 15.3-29.34 0-1.08-1.18-4.76-2.62-8.19-1.44-3.43-2.9-9.14-3.25-12.69-0.57-5.82-0.88-6.52-3.13-7.07-2.79-0.68-2.76-0.36-1.05-12.03 1.18-8.1 1.44-8.66 6.2-13.69 5.75-6.08 9.68-13.96 10.53-21.14l0.6-5.04-3.85 1.96c-11.39 5.81-24.59-2.37-24.78-15.34-0.06-4.34 0.48-6.29 2.64-9.55 3.13-4.73 9.07-8.15 14.18-8.15h3.54l0-5.75c0-3.16 0.67-9.8 1.48-14.75 2.32-14.15 2.95-12.84-8.74-18.23-20.04-9.25-60.25-29.28-60.25-30.02 0-0.41 4.5-9.4 10-19.98 6.12-11.77 10.58-19.24 11.5-19.27 0.91-0.02 8.06-11.87 18.27-30.27 9.22-16.63 17.14-30.82 17.59-31.53 0.58-0.93 4.06 1.93 12.23 10.04 40.4 40.14 85.85 62.18 139.87 67.84 17.16 1.8 48.22 0.64 65.05-2.42 12.1-2.2 28.41-6.63 41-11.13 9.85-3.52 31.27-14.77 42.57-22.36 16.36-10.99 26.68-19.49 40.43-33.29l11.69-11.74 12.37 19.18c6.8 10.55 15.31 24.68 18.9 31.4 3.6 6.72 11.38 18.97 17.29 27.22 5.91 8.25 10.75 15.38 10.75 15.84 0 0.89-7.29 4.41-47.5 22.93-13.75 6.33-25.35 11.84-25.77 12.23-0.9 0.82 0.81 9.57 5.94 30.33l3.64 14.77 4.28 1.89c6.04 2.67 9.86 8.67 9.82 15.44-0.05 9.69-6.35 16.63-15.83 17.41-3.06 0.25-6.23-0.07-7.53-0.76-2.16-1.16-2.22-1.08-1.54 2.14 1.03 4.92 3.99 11.31 7.18 15.5 3.86 5.07 13.29 11.84 19.28 13.83 4.21 1.4 4.81 1.9 3.95 3.33-0.72 1.2-0.45 3.84 0.93 9.18 1.07 4.13 1.76 7.8 1.54 8.17-0.22 0.37-1.75 0.97-3.39 1.33-4.08 0.9-3.96 4.18 0.51 14.36 3.85 8.75 4.26 12.39 2 17.79-2.4 5.74-1.82 9.34 2.99 18.77 2.47 4.84 4.28 9.13 4.03 9.54-0.25 0.41 1.44 1.31 3.76 2 7.06 2.11 11.72 4.89 11.72 7.01 0 3.83-13.22 4.96-33.5 2.87zm-5.49-129.09c5.53-3.76 7.49-7.23 7.49-13.25 0-15.17-19.53-21.18-28.06-8.62-2.87 4.23-3.3 11.57-0.93 16.15 3.85 7.45 14.71 10.35 21.5 5.73zm-337.26-1.57c8.74-6.22 8.19-20.58-0.99-26.18-3.49-2.13-9.99-2.62-14.1-1.06-6.05 2.3-10.51 10.71-9.25 17.44 0.81 4.31 4.88 9.39 9.04 11.28 4.14 1.88 11.6 1.16 15.3-1.47zm163.06-200.73c-3.13-0.76-6.96-1.35-8.5-1.31-4.65 0.12-26.31-8.22-26.31-10.13 0-1.59 1.87-2.11 3.71-1.03 3.16 1.85 15.64 6.22 20.29 7.1 20.55 3.89 30.63 4.24 40 1.42 8.2-2.48 10.44-2.43 10.82 0.21 0.23 1.65-0.28 2.33-2 2.66-1.27 0.24-4.71 0.93-7.64 1.54-7.21 1.48-23.39 1.24-30.37-0.45zm55.19-100.91c-6.87-0.75-14.88-2.1-17.79-3-4.88-1.51-5.64-2.19-9.92-8.84-7.24-11.26-11.75-21.04-16.75-36.31-5.09-15.57-8.06-21.53-6.46-12.97 0.86 4.59 0.63 6.62-0.61 5.38-0.29-0.29-0.8-2.8-1.13-5.56-0.69-5.79-1.64-7.79-3.25-6.8-1.77 1.09-5.5 9.08-9.59 20.56-2.06 5.78-5 12.98-6.52 16-4.46 8.86-15.87 24.89-18.79 26.4-7.52 3.87-33.8 4.6-77.19 2.13-37.78-2.14-56.53-4.3-62.16-7.15-3.01-1.52-2.31 1.08-9.41-34.88-2.61-13.2-4.85-24.14-4.98-24.32-0.13-0.18-12.74-4.11-28-8.75s-27.98-8.65-28.25-8.92c-0.27-0.27-0.56-3.31-0.65-6.75-0.09-3.44-0.98-11.89-1.97-18.76-2.47-17.04-2.54-46.51-0.15-61.35 4.69-29.13 14.3-50.97 30.05-68.35 12.25-13.51 59.52-56.13 94.44-85.15l19.4-16.12 4.93 2.68c4.35 2.37 11.91 10.23 13.06 13.58 0.43 1.25 4.52-2.38 33.92-30.14 18.33-17.3 31.73-28.15 34.78-28.15 1.75 0 1.77 0.29 0.34 5.75-2.12 8.13-1.43 18.57 1.42 21.42l2.16 2.16 4.81-3.92c12.2-9.95 29.5-29.85 38.82-44.66 1.64-2.61 3.33-4.75 3.75-4.75 0.42 0 3.69 3.94 7.27 8.75 7.95 10.69 16.87 28.32 19.11 37.75 0.91 3.85 1.88 7.68 2.15 8.5 0.27 0.83 1.93-2.89 3.7-8.26s3.42-9.97 3.67-10.22c0.87-0.87 120.55 120.33 131.43 133.1 38.3 44.95 53.09 92.9 43.44 140.88-1.11 5.5-2.01 12.55-2.01 15.67 0 5.52-0.09 5.7-3.25 6.7-1.79 0.56-13.15 4.02-25.25 7.68s-22.22 6.87-22.5 7.13c-0.27 0.26-3.67 13.38-7.54 29.15l-7.04 28.67-3.74 1.24c-7.12 2.35-24.34 3.35-64.68 3.76-29.93 0.3-43.76 0.06-53-0.95zm74-8.52c10.73-0.53 23.87-1.25 29.22-1.6l9.72-0.63 2.1-5.62c5.03-13.44 9.13-36.2 10.43-57.83l0.61-10.16-5.42-2.03c-10.59-3.96-30.78-8.46-45.78-10.21-15.69-1.82-55.11-0.67-69.88 2.05-11.22 2.06-29.48 6.08-35.5 7.81l-3 0.86 0.03 19.92c0.04 21.84 0.8 26.19 6.61 37.7 3.18 6.29 9.8 13.61 14.55 16.06 1.75 0.9 8.45 1.94 16.86 2.61 26.82 2.12 43.03 2.37 69.45 1.07zm-93.5-43.2c-4.76-5.66-1.32-13.02 6.09-13.02 5.33 0 8.86 4.01 8.04 9.12-1.18 7.4-9.3 9.64-14.13 3.89zm-78.91 37.46c9.5-5.02 17.13-16.2 21.01-30.78 1.47-5.53 1.86-10.66 1.88-24.5l0.02-17.5-11.23-3.21c-30.83-8.81-54.16-11.76-86.77-10.97-24.13 0.58-35.08 2.15-53.39 7.64l-7.39 2.22 0.69 16.17c1.05 24.76 6.29 54.34 10.14 57.27 1.52 1.15 3.53 1.39 32.97 3.86 27.15 2.28 26.89 2.27 58.5 2.12 28.15-0.14 29.69-0.24 33.59-2.3zm4.91-35.44c-5.17-2.83-6.16-9.28-2.05-13.39 5.17-5.17 13.55-1.43 13.55 6.05 0 6.4-6.1 10.3-11.5 7.35zm244.52-39.23c6.32-1.86 14.81-4.37 18.88-5.59l7.4-2.21-0.58-15.67c-1.22-32.91-9.46-55.69-27.67-76.57-8.77-10.05-16.4-16.15-26.27-21-7.5-3.69-9.35-5.13-13.28-10.36-11.29-15.02-29.14-29.26-43.21-34.47-11.98-4.44-22.98-6.02-38.3-5.51-12.02 0.41-14.81 0.86-25.35 4.14-11.22 3.49-23.01 7.97-37.65 14.3-6.33 2.74-6.96 2.81-24 2.76-14.95-0.05-19.32-0.44-30-2.69-17.31-3.65-35.56-8.67-55-15.12-9.07-3.01-20.27-6.02-24.87-6.69-25.15-3.65-47.52 5.38-70.64 28.53-18.15 18.18-32.53 39.76-38.33 57.52-4.97 15.23-5.56 20.16-5.68 47.23l-0.12 25.73 18.07 6.02c9.94 3.31 19.51 6.02 21.26 6.02 2.49 0 4.25-1.07 8-4.85 8.18-8.26 18.12-10.73 47.31-11.78 33.99-1.22 105.84 5.65 120.79 11.55 7.07 2.79 20.43 2.87 29.36 0.16 15.42-4.67 58.21-7.52 101.86-6.77 31.84 0.54 37.78 1.21 52.5 5.86 5.79 1.83 7.86 3.12 12 7.46 6.2 6.5 7.76 6.63 23.52 1.99zm-191-60.56c-0.67-1.62-1.04-3.49-0.82-4.15 0.32-0.96 45.17-19.27 75.11-30.67l5.81-2.21 1.5 3.6c0.83 1.98 1.28 3.81 1.02 4.08-0.37 0.37-80.65 32.27-81.26 32.3-0.07 0-0.68-1.32-1.35-2.94zm-61.86-17.31-39.33-15.14 0.6-3.02c0.33-1.66 1.02-3.44 1.54-3.95 0.83-0.83 79.21 28.37 81.29 30.29 1.29 1.2-1.32 7.08-3.11 7.02-0.91-0.03-19.35-6.87-40.99-15.2z" fill="#86776c"/><path id="path3505" d="m448.3 863.33c-4.12-0.49-47.32-1.3-96-1.79-52.43-0.53-90.74-1.31-94-1.92-3.02-0.57-22.82-1.57-44-2.22-39.2-1.22-61.34-0.79-115.18 2.21-23.65 1.32-29.31 0.81-29.31-2.64 0-1.37 1.59-2.76 5.25-4.59 2.89-1.44 4.99-2.88 4.68-3.19-0.31-0.31 1.2-3.2 3.36-6.41 6.12-9.1 15.21-26.78 15.21-29.59 0-1.4-1.35-5.71-3-9.59-2.01-4.72-3-8.72-3-12.1 0-2.78 0.2-5.05 0.44-5.05 0.24 0 20.15 4.9 44.25 10.89 56.74 14.1 79.57 17.9 118.31 19.68 24.54 1.13 79.1-2.45 109-7.15 14.58-2.29 48.61-9.12 67.27-13.49 9.22-2.16 17.44-3.93 18.25-3.93 0.92 0 1.48 0.97 1.48 2.58 0 1.42 1.39 5.74 3.08 9.6 3.95 9 4.42 12.32 2.49 17.7-2.37 6.61-1.94 9.96 2.43 19 2.2 4.55 4 8.9 4 9.66 0 0.79 2.08 2 4.87 2.83 10.07 2.99 13.11 5.74 9.58 8.67-1.94 1.61-18.98 2.11-29.45 0.85zm-3.49-95.89c-0.35-0.57 0.05-0.73 0.94-0.39 1.73 0.66 2.05 1.38 0.61 1.38-0.52 0-1.22-0.44-1.55-0.99zm-352.03-5.13c4.72-4.15 7.38-8.01 10.16-14.78 1.27-3.08 2.31-4.93 2.32-4.11 0.04 4.7-11.86 22-15.14 22-0.49 0 0.7-1.4 2.65-3.12zm344.44-0.63-2.42-2.75 2.75 2.42c1.51 1.33 2.75 2.57 2.75 2.75 0 0.78-0.81 0.15-3.08-2.42zm-6.12-6c-1.76-2.05-3.08-4.25-2.55-4.25 0.2 0 1.37 1.35 2.59 3 2.41 3.26 2.39 4.07-0.03 1.25zm-325.58-17.25c0-1.92 0.21-2.71 0.46-1.75 0.25 0.96 0.25 2.54 0 3.5-0.25 0.96-0.46 0.18-0.46-1.75zm317.27-0.85c-0.55-1.08-2.32-3.62-3.94-5.66-4.31-5.41-4.8-13.69-1.19-19.86 2.64-4.5 8.98-8.63 13.25-8.63 1.09 0 2.55-0.56 3.24-1.25 1.01-1 1.14-0.93 0.65 0.36-0.46 1.2 0.14 1.77 2.3 2.2 3.57 0.71 8.76 4.95 10.73 8.76 0.81 1.56 1.46 4.9 1.46 7.42 0 11.43-10.49 19.68-21.25 16.7-2.95-0.81-3.69-0.73-3.94 0.46-0.23 1.1-0.56 0.97-1.3-0.5zm18.63-3.59c6.82-4.63 8.78-13.62 4.59-21.06-2.73-4.85-7.6-7.5-13.82-7.5-6.11 0-10.71 3.12-13.82 9.39-2.22 4.49-2.32 5.26-1.19 9.49 0.68 2.53 1.99 5.46 2.92 6.51 5.42 6.11 14.92 7.53 21.32 3.18zm-353.12 2.32c-9.95-3.96-14.12-16.67-8.36-25.54 3.19-4.92 6.74-7.15 12.65-7.96l4.45-0.61 0.68-9.05c0.38-4.98 1.33-12.43 2.12-16.56 0.79-4.13 1.33-7.61 1.2-7.73-0.49-0.46-64.79-31.42-68.25-32.86l-3.63-1.52 8.02-15.27c11.76-22.4 12.48-23.63 14.16-24.07 1.61-0.42 70.19 40.46 70.77 42.18 0.18 0.55-2.51 8.7-5.98 18.11l-6.31 17.12-3.25-0.6c-1.79-0.33-3.25-0.23-3.25 0.22 0 0.45-0.89 7.11-1.98 14.8-1.09 7.68-1.99 14.48-2 15.1-0.01 0.62 1.32 1.68 2.95 2.36 8.2 3.4 11.43 15.19 6.8 24.85-1.35 2.82-2.68 4.91-2.96 4.63-0.28-0.28-2.48 0.39-4.9 1.49-4.79 2.17-8.99 2.47-12.9 0.92zm12.8-2.28c4.14-2.15 6.91-5.67 8.15-10.34 1.53-5.76 0.03-10.91-4.44-15.24-3.11-3.01-4.27-3.46-9.77-3.8-5.29-0.33-6.76-0.03-9.64 1.95-10.58 7.28-8.99 22.63 2.9 28.02 2.65 1.2 10.02 0.86 12.8-0.58zm12.84-79.61c2.98-7.94 5.29-15.05 5.14-15.8-0.25-1.23-67.67-42.72-68.24-41.99-0.13 0.17-4.41 8.33-9.5 18.15-5.51 10.61-8.9 18.2-8.36 18.74 1.41 1.41 73.71 35.86 74.68 35.59 0.47-0.13 3.3-6.74 6.28-14.68zm311.07 10.92c-1.61-5.45-1.92-5.87-3.76-4.89-1.1 0.59-2.38 0.84-2.84 0.55-1.99-1.23-20.32-31.76-19.51-32.49 1.12-1 76.64-37.12 77.58-37.1 0.38 0.01 4.46 5.53 9.08 12.26 9.32 13.6 10.06 14.75 9.4 14.75-0.25 0-4.16-5.29-8.69-11.75-4.53-6.46-8.55-12.1-8.93-12.52-0.53-0.59-74.15 34.05-75.73 35.63-0.26 0.26 15.76 26.66 17.31 28.54 0.37 0.45 1.72-0.15 46.62-20.71 18.01-8.25 32.75-14.66 32.75-14.25 0 0.86-18.26 9.67-50 24.12-12.37 5.63-22.67 10.39-22.89 10.57-0.21 0.18 0.16 3.08 0.82 6.45 0.66 3.37 1.06 6.28 0.87 6.46-0.18 0.18-1.12-2.35-2.09-5.62zm-164.05 2.43c-0.37-0.37-0.67-12.74-0.67-27.5v-26.83h-3.43c-2.68 0-3.98 0.71-5.97 3.25l-2.55 3.25 3.08 1.04c5.79 1.96 7.32 6.33 3.79 10.82-2.57 3.26-7.51 3.54-11.22 0.62l-2.56-2.01-2.14 3.01c-1.18 1.66-2.57 3.01-3.1 3.01-0.52 0-10.28-7.27-21.68-16.16-11.4-8.89-21.96-16.87-23.47-17.75-1.51-0.88-2.75-1.93-2.75-2.34-0.01-1.12 10.01 2.91 11.34 4.57 0.63 0.79 6.33 5.4 12.65 10.24 6.33 4.84 14.26 10.97 17.64 13.62l6.14 4.82 6.36-9.22c7.67-11.12 7.39-10.51 5.16-11.08-1.14-0.3-0.7-0.54 1.19-0.68 3.86-0.27 25.08-0.26 29 0.01l3 0.21-2.67 0.63-2.67 0.63 6.51 9.3 6.51 9.3 4.16-3.35c2.29-1.84 9.34-7.34 15.66-12.21 6.33-4.88 11.91-9.23 12.41-9.66 0.5-0.44-0.85-0.6-3-0.36-3.46 0.39-3.34 0.29 1.11-0.88 2.76-0.72 6.03-1.86 7.28-2.52 1.24-0.66 3.93-1.4 5.98-1.64l3.72-0.44-4.26 2.24c-2.34 1.23-12.65 8.76-22.91 16.74-10.26 7.98-19.19 14.82-19.85 15.22-0.78 0.47-3.93-3.29-9.06-10.8l-7.87-11.51-4.03 0.3-4.03 0.3-0.27 27.25c-0.15 14.99-0.63 27.25-1.08 27.25-0.45 0-1.12-0.3-1.48-0.67zm-7.87-37.53c3.52-3.52-1.42-8.2-6.3-5.98-4.42 2.01-2.62 7.18 2.5 7.18 1.43 0 3.14-0.54 3.8-1.2zm-5.8 29.51c-7.65-2.92-5.84-13.31 2.32-13.31 4.75 0 7.68 2.44 7.68 6.4 0 4.84-5.49 8.63-10 6.91zm6.42-4.23c2.41-2.66 0.58-6.08-3.26-6.08-6.75 0-6.82 7.84-0.07 7.97 0.88 0.02 2.38-0.83 3.33-1.89zm-14.16-43.78c0.96-0.25 2.54-0.25 3.5 0 0.96 0.25 0.18 0.46-1.75 0.46s-2.71-0.21-1.75-0.46zm44 0c0.96-0.25 2.54-0.25 3.5 0 0.96 0.25 0.18 0.46-1.75 0.46s-2.71-0.21-1.75-0.46zm9.56-0.99c0.72-0.29 1.58-0.25 1.92 0.08 0.33 0.33-0.26 0.57-1.31 0.53-1.16-0.05-1.4-0.28-0.6-0.6zm-73.31-1.37c-1.35-0.61-0.37-0.71 3-0.3 2.75 0.33 5.19 0.78 5.42 0.98 0.88 0.78-6.52 0.19-8.42-0.68zm78.58 0.68c0.23-0.2 2.67-0.63 5.42-0.95 3.37-0.39 4.19-0.3 2.5 0.27-2.5 0.85-8.7 1.38-7.92 0.68zm-84.27-2.31c0.72-0.29 1.58-0.25 1.92 0.08 0.33 0.33-0.26 0.57-1.31 0.53-1.16-0.05-1.4-0.28-0.6-0.6zm-8.31-1.32c-2-0.86-2-0.86 0-0.86 1.1 0 2.9 0.39 4 0.86 2 0.86 2 0.86 0 0.86-1.1 0-2.9-0.39-4-0.86zm-22.5-7c-1.83-1.18-0.25-1.18 2.5 0 1.32 0.57 1.49 0.88 0.5 0.91-0.82 0.03-2.17-0.38-3-0.91zm157 0c0.83-0.53 2.17-0.97 3-0.97 1.33 0 1.33 0.11 0 0.97-0.82 0.53-2.17 0.97-3 0.97-1.33 0-1.33-0.11 0-0.97zm-167-4c-0.82-0.53-1.05-0.97-0.5-0.97s1.68 0.44 2.5 0.97 1.05 0.97 0.5 0.97-1.67-0.44-2.5-0.97zm177 0.29c0.83-0.31 2.4-0.97 3.5-1.48 1.97-0.91 1.97-0.9 0.06 0.64-1.07 0.86-2.64 1.52-3.5 1.48-1.35-0.07-1.35-0.15-0.06-0.64zm-183.49-3.27c-0.35-0.57 0.05-0.73 0.94-0.39 1.73 0.66 2.05 1.38 0.61 1.38-0.52 0-1.22-0.44-1.55-0.99zm190.92 0.11c0.3-0.48 1.56-1.14 2.81-1.45 2.19-0.55 2.2-0.52 0.32 0.88-2.15 1.61-3.98 1.94-3.13 0.57zm-198.92-4.11c-0.35-0.57 0.05-0.73 0.94-0.39 1.73 0.66 2.05 1.38 0.61 1.38-0.52 0-1.22-0.44-1.55-0.99zm206.49 0.6c0-0.22 0.7-0.66 1.55-0.99 0.89-0.34 1.29-0.17 0.94 0.39-0.59 0.95-2.49 1.41-2.49 0.6zm-212.49-3.6c-0.35-0.57 0.05-0.73 0.94-0.39 1.73 0.66 2.05 1.38 0.61 1.38-0.52 0-1.22-0.44-1.55-0.99zm218.49 0.56c0-0.28 0.9-0.98 2-1.57 1.1-0.59 2-0.85 2-0.57s-0.9 0.98-2 1.57c-1.1 0.59-2 0.85-2 0.57zm-222.56-3.13c-1.86-1.49-1.85-1.51 0.31-0.46 1.24 0.6 2.25 1.3 2.25 1.56 0 0.77-0.52 0.54-2.56-1.09zm227.56 0.16c0-0.22 0.7-0.66 1.55-0.99 0.89-0.34 1.29-0.17 0.94 0.39-0.59 0.95-2.49 1.41-2.49 0.6zm4.43-2.5c0.71-1.15 4.57-3.48 4.57-2.76 0 0.23-1.18 1.19-2.62 2.14s-2.32 1.22-1.94 0.62zm5.57-3.46c0-0.23 1.18-1.19 2.62-2.14s2.32-1.22 1.94-0.62c-0.71 1.15-4.57 3.48-4.57 2.76zm6-4.05c0-0.26 1.46-1.49 3.25-2.75 2.31-1.62 2.84-1.77 1.83-0.51-1.43 1.78-5.08 4.12-5.08 3.26zm7-4.98c0-0.21 0.79-1 1.75-1.75 1.59-1.24 1.62-1.21 0.38 0.38-1.31 1.67-2.13 2.2-2.13 1.37zm-276.86-2.66c-1.3-1.08-1.93-1.97-1.4-1.97 0.53 0 1.77 0.9 2.77 2 2.29 2.53 1.7 2.51-1.36-0.03zm280.86-0.34c0-0.21 0.79-1 1.75-1.75 1.59-1.24 1.62-1.21 0.38 0.38-1.31 1.67-2.13 2.2-2.13 1.37zm6-5.12c1.29-1.37 2.57-2.5 2.85-2.5s-0.56 1.13-1.85 2.5c-1.29 1.38-2.57 2.5-2.85 2.5s0.56-1.12 1.85-2.5zm-298.6-4.75-1.9-2.25 2.25 1.91c2.11 1.79 2.71 2.6 1.91 2.6-0.19 0-1.2-1.01-2.25-2.25zm304.6-0.06c0-0.17 1.46-1.63 3.25-3.25l3.25-2.94-2.94 3.25c-2.74 3.03-3.56 3.71-3.56 2.94zm-317.03-11.44-5.47-5.75 5.75 5.47c3.16 3.01 5.75 5.59 5.75 5.75 0 0.74-0.96-0.12-6.03-5.47zm328.03 1.37c0-0.21 0.79-1 1.75-1.75 1.59-1.24 1.62-1.21 0.38 0.38-1.31 1.67-2.13 2.2-2.13 1.37zm4-4c0-0.21 0.79-1 1.75-1.75 1.59-1.24 1.62-1.21 0.38 0.38-1.31 1.67-2.13 2.2-2.13 1.37zm7-8.12c1.29-1.37 2.57-2.5 2.85-2.5s-0.56 1.13-1.85 2.5c-1.29 1.38-2.57 2.5-2.85 2.5s0.56-1.12 1.85-2.5zm-169.5-0.98c-3.3-0.77-7.57-1.43-9.5-1.47-3.49-0.08-10.34-2.06-11.65-3.36-0.38-0.38-1.34-0.69-2.14-0.69-1.95 0-13.21-5.09-13.21-5.97 0-1.67 1.4-1.76 4.83-0.31 9.34 3.94 19.77 7.28 22.72 7.28 1.78 0 6.77 0.73 11.09 1.62 9.24 1.91 17.89 1.44 27.22-1.49 3.5-1.1 6.98-1.75 7.75-1.46 1.73 0.66 1.82 2.94 0.15 3.97-4.33 2.67-28.57 3.89-37.25 1.87zm54.5-100.92c-6.87-0.72-15.1-2.07-18.29-3-5.3-1.54-6.1-2.17-9.45-7.4-7.11-11.09-13.12-23.86-17.24-36.66-2.3-7.12-5.04-14.55-6.1-16.5l-1.93-3.55 0.59 4c0.33 2.2 0.81 4.79 1.07 5.75 0.26 0.96 0.06 1.75-0.46 1.75-0.98 0-2.17-5.56-2.19-10.25-0.01-2-0.51-2.75-1.85-2.75-2.24 0-5.79 6.77-10.24 19.5-1.73 4.95-4.38 11.73-5.89 15.06-3.59 7.94-16.44 27.05-19.17 28.51-7.62 4.08-34.42 4.91-77.37 2.4-38.5-2.25-60.1-4.89-63.81-7.77-1.01-0.79-3.45-10.79-7.23-29.69-3.14-15.67-5.84-28.66-6.01-28.85-0.17-0.19-13.05-4.25-28.63-9.01l-28.31-8.67 0.31-3.57c0.17-1.96-0.39-8.56-1.24-14.66-5.41-38.8-3.61-68.44 5.87-96.78 8.9-26.6 17.57-37.11 68.05-82.48 20.78-18.68 55.29-48.06 67.24-57.25 0.68-0.52 2.41-0.66 3.84-0.3 3.12 0.78 12.03 8.9 14.04 12.79 0.79 1.53 1.92 2.78 2.52 2.78 0.59 0 8.12-6.87 16.72-15.26 27.13-26.46 47.19-43.74 50.76-43.74 1.68 0 1.68-0.34-0.01 9.19-1.77 10.04 0.06 19.81 3.72 19.81 0.69 0 5.38-3.6 10.42-7.99 9.85-8.59 23.67-24.8 31.75-37.27 2.75-4.24 5.33-7.72 5.74-7.72 0.41-0.01 3.15 3.25 6.08 7.24 11.44 15.52 18.55 29.87 20.87 42.1 0.69 3.66 1.56 6.65 1.91 6.65 0.36 0 1.97-4.13 3.58-9.19 1.61-5.05 3.41-9.35 3.99-9.54 1.17-0.39 115.59 115.11 127.52 128.73 40.85 46.62 56.87 95.91 46.78 143.9-1.09 5.17-1.98 12.17-1.98 15.56v6.16l-24.62 7.42c-13.54 4.08-25.2 7.88-25.91 8.44-0.71 0.56-4.05 12.27-7.42 26.02s-6.56 26.64-7.1 28.63c-0.86 3.21-1.49 3.76-5.44 4.76-8.33 2.1-27.9 3.17-65.52 3.6-26.65 0.3-41.12 0.05-50-0.89zm78.5-8.69c12.65-0.61 25.41-1.4 28.35-1.76 5.32-0.65 5.36-0.68 7.29-5.66 5.22-13.49 9.66-38.72 10.09-57.45l0.27-11.45-10.3-3.26c-24.3-7.69-41.61-9.79-74.7-9.06-25.78 0.57-40.54 2.55-63.51 8.5l-10.49 2.72-0.27 17.2c-0.38 23.71 2.4 36.04 10.54 46.8 5.63 7.43 11.8 11.19 19.8 12.05 22.42 2.4 51.35 2.88 82.93 1.37zm-97.75-41.89c-3.31-2.6-4.17-6.3-2.31-9.9 3.5-6.76 13.69-5.11 15.14 2.46 0.46 2.4 0.01 3.76-2.09 6.25-3.16 3.75-6.96 4.18-10.75 1.2zm-77.91 35.09c14.19-9.1 20.79-26.3 21.33-55.5l0.29-15.89-2.39-0.89c-4.24-1.57-24.83-6.73-34.84-8.73-41.01-8.2-82.45-7.22-115.72 2.75l-6 1.8 0.15 16.56c0.15 17.27 1.98 32.63 5.43 45.8 3.58 13.64 2.26 12.52 16.22 13.82 6.71 0.62 18.72 1.6 26.7 2.17 7.98 0.57 16.3 1.2 18.5 1.41 2.2 0.2 17.74 0.31 34.52 0.24l30.52-0.13 5.29-3.4zm1.24-35.69c-4.74-3.99-4.2-10.26 1.12-13.01 5.65-2.92 11.81 0.6 11.81 6.74 0 4.05-0.95 5.78-4.07 7.4-3.92 2.03-5.31 1.85-8.85-1.13zm243.62-36.83c4.29-1.33 12.41-3.83 18.05-5.54l10.25-3.12v-11.71c-0.01-23.18-3.42-39.37-11.98-56.82-10.57-21.55-29.66-41.1-45.79-46.9-3.37-1.21-5.62-2.9-7.66-5.73-15.33-21.32-36.2-36.23-57.07-40.76-13.95-3.03-33.57-2.78-46.25 0.59-10.3 2.73-26.78 8.69-41.75 15.07l-9 3.84-16.5-0.08c-13.85-0.07-18.59-0.51-29.5-2.78-17.36-3.61-32.44-7.71-52.32-14.24-22.4-7.35-30.11-8.82-42.63-8.1-14.97 0.86-23.71 4.04-38.44 13.96-14.15 9.54-30.9 27.6-43.47 46.89-6.83 10.48-10.9 19.34-14.1 30.73-4.5 16-5.02 23.39-4.21 60.01l0.19 8.41 17.48 5.84c21.97 7.34 23.64 7.39 29.87 0.99 8.51-8.74 21.81-11.51 55.15-11.51 40.88 0 98.26 5.77 112.76 11.34 7.15 2.74 20.89 2.77 30.08 0.06 15.31-4.52 59.3-7.47 100.53-6.74 30.32 0.54 39.42 1.54 52.31 5.78 7.15 2.35 13.9 6.9 15.52 10.45 0.97 2.12 1.79 2.47 5.91 2.47 2.63 0 8.3-1.09 12.59-2.42zm-188.72-62.63c-0.73-1.77-0.89-3.38-0.37-3.82 0.49-0.42 9.67-4.19 20.39-8.38s28.62-11.21 39.78-15.59l20.27-7.97 1.49 3.56c0.82 1.96 1.37 3.68 1.23 3.82-0.14 0.14-9.94 4.07-21.76 8.73s-29.63 11.67-39.57 15.58c-9.94 3.92-18.55 7.12-19.13 7.12-0.58 0-1.63-1.37-2.33-3.06zm-61.48-16.22c-21.45-8.28-39.17-15.18-39.37-15.34-0.51-0.4 0.65-4.58 1.73-6.23 0.69-1.06 9.32 1.89 40.76 13.92 21.94 8.39 40.22 15.54 40.63 15.88 1.23 1.03-1.56 7.05-3.21 6.93-0.84-0.06-19.08-6.88-40.53-15.16z" fill="#6b6159"/><path id="path3503" d="m433.8 862.3c-6.05-0.45-46.55-1-90-1.22-50.26-0.25-80.14-0.77-82.14-1.42-1.73-0.56-18.83-1.54-38-2.16-19.17-0.62-35.98-1.31-37.36-1.52-3.44-0.52-68.92 2.1-88.24 3.54-17 1.26-24.8 0.95-27.26-1.08-1.41-1.17-1.4-1.47 0.09-3.11 0.91-1 3.64-2.58 6.08-3.51 2.61-1 3.96-1.98 3.28-2.4-0.78-0.48-0.04-2.27 2.32-5.59 5.56-7.82 14.86-25.57 15.4-29.38 0.34-2.46-0.43-5.78-2.6-11.17-2.74-6.8-3.99-14.59-2.59-16 0.27-0.27 18.16 3.91 39.75 9.31 44.94 11.23 57.3 13.89 78.25 16.83 41.44 5.81 92.61 5.09 144.87-2.04 21.67-2.96 57-9.9 83.47-16.4 5.69-1.4 10.75-2.29 11.25-1.98 0.5 0.31 0.91 1.67 0.91 3.03s1.31 5.35 2.9 8.87c4.02 8.87 4.44 11.52 2.66 16.65-2.47 7.1-1.97 11.32 2.39 20.29 2.17 4.46 4.17 8.86 4.43 9.77 0.27 0.91 1.98 1.98 3.8 2.37 4.03 0.87 10.42 4.01 11.4 5.61 0.4 0.65-0.1 1.76-1.12 2.51-2.1 1.53-24.95 1.65-43.96 0.22zm-10.5-127.12c-1.81-1.24-3.95-3.37-4.76-4.75-1.17-2-1.01-1.93 0.82 0.38 1.26 1.58 4.12 3.71 6.36 4.73s3.35 1.86 2.47 1.87c-0.88 0.01-3.08-0.99-4.9-2.23zm-334.19 0.57c0.72-0.29 1.58-0.25 1.92 0.08 0.33 0.33-0.26 0.57-1.31 0.53-1.16-0.05-1.4-0.28-0.6-0.6zm354.19-2.82c1.29-1.37 2.57-2.5 2.85-2.5s-0.56 1.13-1.85 2.5c-1.29 1.38-2.57 2.5-2.85 2.5s0.56-1.12 1.85-2.5zm-361.08-1.25-2.42-2.75 2.75 2.42c1.51 1.33 2.75 2.57 2.75 2.75 0 0.78-0.81 0.15-3.08-2.42zm25.89-3.75c0.51-1.1 1.17-2.67 1.48-3.5 0.48-1.3 0.57-1.29 0.64 0.06 0.04 0.86-0.62 2.43-1.48 3.5-1.53 1.91-1.54 1.91-0.64-0.06zm307.42-6.5c0-1.92 0.21-2.71 0.46-1.75 0.25 0.96 0.25 2.54 0 3.5-0.25 0.96-0.46 0.18-0.46-1.75zm-305.04-1.5c0.02-1.65 0.24-2.2 0.5-1.23 0.25 0.97 0.24 2.32-0.04 3-0.27 0.68-0.48-0.12-0.46-1.77zm305.81-4.14c0-0.54 0.7-1.85 1.56-2.92 1.47-1.83 1.49-1.8 0.36 0.56-1.46 3.06-1.92 3.63-1.92 2.36zm-311.13-8.11c-1.24-1.59-1.21-1.62 0.38-0.38 0.96 0.75 1.75 1.54 1.75 1.75 0 0.82-0.82 0.29-2.13-1.37zm318.86-1.37c0.68-0.68 1.49-0.99 1.79-0.68 0.31 0.31-0.25 0.87-1.23 1.24-1.43 0.54-1.54 0.43-0.56-0.56zm4.08-1.56c0.72-0.29 1.58-0.25 1.92 0.08 0.33 0.33-0.26 0.57-1.31 0.53-1.16-0.05-1.4-0.28-0.6-0.6zm-330.35-9.57c0.69-8.98 3.23-25.77 4.02-26.56 0.22-0.22 0.83-0.12 1.35 0.2 0.59 0.37 0.63 2.03 0.09 4.35-1.54 6.63-4.12 28.29-3.54 29.8 0.35 0.9-0.05 1.46-1.04 1.46-1.4 0-1.51-1.15-0.89-9.25zm163.55-54.75c0-18 0.36-28 1-28s1 10 1 28-0.36 28-1 28-1-10-1-28zm162.57 20.43c-0.37-1.47-0.44-2.89-0.17-3.16s0.8 0.7 1.17 2.16c0.37 1.47 0.44 2.89 0.17 3.16s-0.8-0.7-1.17-2.16zm-178.94-3.5c-3.01-2.37-3.31-4.52-1.08-7.7 2.03-2.9 9.3-3.15 11.79-0.39 5.67 6.26-3.87 13.48-10.71 8.1zm9.76-2.18c1.23-1.96 0.17-4.36-2.72-6.18-2.04-1.29-6.99 1.09-7.47 3.6-0.83 4.32 7.74 6.49 10.19 2.59zm-41.06-36.05c-25.09-19.46-24.78-19.2-20.99-17.76 1.54 0.58 11.78 8.04 22.76 16.56 10.98 8.52 20.29 15.5 20.68 15.49 0.4-0.01 4.07-4.96 8.16-11 6.49-9.58 9.06-12.54 9.06-10.42 0 0.31-1.37 2.56-3.05 5l-3.05 4.43h2.89c3.44 0 6.21 2.72 6.19 6.08-0.02 2.98-0.85 4.29-3.67 5.77-3.22 1.69-4.83 1.43-8.12-1.34l-2.96-2.49-2.37 3.48c-1.3 1.91-2.6 3.46-2.87 3.44s-10.48-7.78-22.67-17.24zm38.74 12.27c2.16-1.16 2.57-4.93 0.73-6.76-0.66-0.66-2.37-1.2-3.8-1.2-3.2 0-5 1.68-5 4.65 0 3.62 4.24 5.36 8.07 3.31zm27.63-6.94c-4.23-6.03-7.7-11.21-7.7-11.5 0-2.1 2.66 0.85 8.57 9.5 4.22 6.17 7.35 9.84 8.15 9.53 0.71-0.27 9.06-6.51 18.54-13.87 16.86-13.07 21.49-16.27 22.33-15.44 0.38 0.38-40.97 32.75-41.82 32.75-0.2 0-3.83-4.94-8.06-10.97zm-11.2-92.52c-3.3-0.76-7.54-1.41-9.43-1.45-4.51-0.08-8.51-1.34-21.32-6.69-6.39-2.67-8.47-4.37-5.33-4.37 0.78 0 3.59 0.93 6.25 2.08 13.83 5.94 19.6 7.2 38.98 8.55 6.38 0.44 9.94 0.11 16.44-1.53 9.8-2.48 11.92-2.59 11.92-0.66 0 1.99-1.24 2.59-7.81 3.76-9.36 1.67-23.16 1.81-29.69 0.31zm58.5-100.61c-12.14-0.95-20.89-2.47-26.04-4.53-2.99-1.2-4.71-3.25-9.83-11.74-6.94-11.51-10.31-19.25-15.08-34.63-1.79-5.77-3.95-11.85-4.8-13.49-1.43-2.77-1.61-2.84-2.32-1-0.69 1.77-0.79 1.7-0.85-0.59-0.08-3.12-0.79-3.96-2.71-3.22-1.98 0.76-4.96 6.86-9.43 19.31-5.55 15.46-7.97 20.33-16.14 32.5-6.11 9.1-8 11.2-10.94 12.18-11 3.64-33.47 4.2-72.03 1.82-42.84-2.65-66.02-5.58-67.87-8.58-0.34-0.55-3.01-13.02-5.95-27.71s-5.66-27.62-6.06-28.74c-0.59-1.66-5.86-3.58-28.71-10.5l-27.98-8.47-0.58-8.5c-0.32-4.67-1.26-13.9-2.1-20.5-3.1-24.52-1.47-56.11 3.92-76 6.45-23.79 15.7-39.89 32.45-56.5 19.45-19.28 70.79-64.79 96.86-85.86 8.12-6.56 10.79-8.21 12.58-7.76 3.15 0.79 11.02 7.9 13.72 12.4 1.23 2.05 2.37 3.89 2.53 4.1 0.16 0.21 8.07-7.16 17.58-16.37 27.25-26.41 47.23-43.51 50.84-43.51 0.82 0 0.98 1.01 0.51 3.25-2.89 13.72-2.7 19.45 0.81 24.25 1.27 1.74 1.69 1.8 3.98 0.57 8.44-4.51 31.21-29.61 40.66-44.78 2.47-3.97 4.79-7.23 5.17-7.25 0.38-0.02 3.41 3.67 6.74 8.21 8.53 11.63 17.47 29.57 19.73 39.6 1.01 4.48 2.14 8.15 2.51 8.15 0.37 0 2.1-4.28 3.84-9.51l3.17-9.51 8.66 7.92c9.51 8.69 96.44 96.77 113.5 114.99 29.22 31.22 47.45 64.43 53.29 97.1 2.29 12.81 2.22 37.38-0.13 49-0.95 4.68-1.94 12.35-2.2 17.06l-0.47 8.56-19.16 5.71c-10.54 3.14-22.1 6.59-25.7 7.68l-6.55 1.97-6.95 28.16c-3.82 15.49-7.4 28.78-7.95 29.52-1.75 2.38-16.25 4.23-41.64 5.3-27.9 1.18-57.34 1.15-72.86-0.06zm79.5-8.93c27.58-1.49 27.39-1.46 29.07-5.47 5.37-12.84 10.02-37.21 11.06-57.93l0.66-13.16-10.89-3.35c-41.54-12.76-86.17-13.04-136.65-0.86l-12.75 3.08-0.21 12.61c-0.3 18.37 0.08 23.7 2.29 32.45 3.35 13.26 9.48 22.82 18.1 28.27 3.61 2.28 6.81 2.78 30.32 4.72 9.67 0.8 51.63 0.58 69-0.36zm-102.18-40.98c-4.69-1.89-5.84-9.22-2-12.82 2.95-2.77 8.01-2.85 10.69-0.17 3.06 3.06 2.73 9.28-0.63 11.93-2.83 2.22-4.6 2.46-8.05 1.07zm-80.15 34.76c9.02-5.3 16.1-16.36 19.7-30.76 1.22-4.88 2.12-13.36 2.57-24.25l0.7-16.75-2.66-1.01c-6.03-2.29-21.06-6.11-35.07-8.91-41.85-8.36-85.23-7.37-116.4 2.67l-5.5 1.77 0.12 17.99c0.13 19.43 2.23 35.04 6.66 49.49l2.3 7.49 4.96 0.72c4.11 0.6 28.21 2.6 49.96 4.15 2.75 0.2 19.18 0.31 36.5 0.25l31.5-0.11 4.67-2.74zm0.91-37.39c-1.14-1.45-2.07-3.64-2.07-4.87 0-1.23 0.93-3.42 2.07-4.87 1.6-2.03 2.95-2.63 5.93-2.63s4.33 0.6 5.93 2.63c1.14 1.45 2.07 3.64 2.07 4.87 0 1.23-0.93 3.42-2.07 4.87-1.6 2.03-2.95 2.63-5.93 2.63s-4.33-0.6-5.93-2.63zm253.28-38.22c10.83-3.22 19.81-6.03 19.95-6.25 0.14-0.22-0.05-8.49-0.42-18.39-0.75-19.89-2.81-30.25-8.91-44.91-9.18-22.06-31.06-45.67-48.29-52.11-3.94-1.47-5.8-3.1-10.22-8.99-6.54-8.7-18-19.75-26.35-25.42-12.94-8.79-27.68-13.54-45.6-14.68-17.4-1.11-30.74 1.97-61.9 14.31-17.39 6.88-19.62 7.52-28 8.01-19.99 1.16-53.99-5.82-93.5-19.21-16.8-5.69-23.7-6.85-37.46-6.28-20.84 0.86-34.91 8.19-56.2 29.28-34.17 33.84-47.64 66.89-44.85 110 0.43 6.6 0.74 12.23 0.68 12.5-0.05 0.28-0.24 2.26-0.42 4.41l-0.33 3.91 17.49 5.8c11.97 3.97 19.12 5.81 22.64 5.84 4.86 0.03 5.27-0.17 7.25-3.52 2.32-3.93 8.41-7.2 18.6-10 8.23-2.26 47.79-3.08 73-1.52 33.34 2.06 69.42 6.82 77.29 10.2 6.13 2.63 21.08 2.58 30.65-0.1 18.07-5.06 93.42-8.84 122.39-6.14 23.79 2.21 39.23 7.2 43.99 14.21 2.31 3.4 4.27 4.71 7.27 4.84 0.87 0.04 10.44-2.57 21.27-5.79zm-197.26-60.3c-0.61-1.74-0.98-3.28-0.84-3.43 0.15-0.15 11.29-4.6 24.76-9.9 13.47-5.3 31.42-12.37 39.9-15.72 14.62-5.77 15.48-5.99 16.75-4.25 1.21 1.66 1.89 5.45 0.97 5.45-0.21 0-18.02 6.98-39.59 15.5s-39.58 15.5-40.03 15.5c-0.44 0-1.3-1.42-1.91-3.16zm-60.1-15.86c-21.17-8.15-39.08-15.2-39.79-15.65-1.03-0.65-1.05-1.52-0.13-4.14 0.64-1.82 1.67-3.11 2.3-2.87 0.62 0.24 18.46 7.08 39.63 15.19 21.18 8.11 38.92 15.14 39.45 15.61 1.11 1.02-0.42 6.09-1.94 6.45-0.55 0.13-18.32-6.44-39.5-14.59zm48.16 108.02c0-1.37 0.23-1.94 0.5-1.25s0.28 1.81 0 2.5-0.5 0.13-0.5-1.25z" fill="#161215"/><path id="path3501" d="m429.8 861.87c-14.1-0.75-51.63-1.31-91-1.38-36.85-0.06-69.92-0.51-73.5-1.01-25.38-3.54-100.72-4.42-145.5-1.7-28.07 1.71-45.21 2.08-47.92 1.04-3.12-1.2-1.48-3.52 4.43-6.32 4.11-1.94 5.52-3.04 4.44-3.45-1.31-0.5-1.07-1.23 1.41-4.36 1.64-2.07 5.94-9.2 9.56-15.84 7.53-13.84 7.93-16.33 4-25.14-2.9-6.5-4.43-16.28-2.54-16.28 0.64 0 7.7 1.64 15.69 3.64l14.53 3.64-5.45 3.11c-3 1.71-7.97 5.87-11.05 9.25-5.38 5.89-6.74 8.37-4.6 8.37 0.55 0 1-0.35 1-0.78 0-1.94 13.33-14.36 17.89-16.67l5.09-2.58 25.76 6.45c28.01 7.01 46.91 10.77 63.54 12.64l10.68 1.2 5.95 5.38c3.27 2.96 6.2 4.98 6.51 4.48 0.31-0.5-1.53-2.83-4.08-5.18l-4.64-4.27 6.9 0.63c3.79 0.35 13.76 0.94 22.15 1.31l15.25 0.68v4.69c0 10.58 1.36 26 2.3 26 0.65 0 0.76-5.39 0.32-15.42l-0.68-15.42 5.28-0.54c2.91-0.3 11.13-0.8 18.28-1.11 34.27-1.51 78.43-7.51 111.41-15.14 4.94-1.14 6.58-1.21 7.15-0.28 0.55 0.89 1.62 0.66 4.1-0.87 1.85-1.14 8.87-3.39 15.62-5l12.26-2.93 0.53 2.61c0.29 1.43 1.45 4.86 2.58 7.61 4.69 11.42 4.9 12.85 2.89 19.89-2.17 7.58-1.72 10.62 2.71 18.61 4.53 8.15 4.91 9.98 2.07 10.08-1.27 0.05 1.05 1.15 5.16 2.45 9.49 3.01 12.02 4.38 12.02 6.5 0 3.3-8.17 3.54-48.5 1.41zm-112-32.36c27.22-3.44 44.12-4.04 75-2.66 15.4 0.69 28.43 0.88 28.95 0.41 0.52-0.46 0.75-0.89 0.5-0.96-2.63-0.71-52.78-2.51-63.45-2.28-22.06 0.48-63.5 5.45-63.5 7.62 0 0.59 1.36 0.78 3.25 0.45 1.79-0.31 10.45-1.47 19.25-2.58zm-220.06-132.58c0.97-9.96 3.47-26.74 4.06-27.33 1.44-1.44 1.26 1.91-0.92 16.73-2.45 16.67-4.36 23.12-3.14 10.61zm129.3-317.5c-5.38-4.23-2.5-13.01 4.27-13.01 3.99 0 7 3.14 7 7.31 0 4.24-1.73 6.51-5.52 7.26-2.21 0.43-3.75 0.02-5.75-1.56zm75.44-0.32c-2.56-2.72-2.79-6.36-0.62-9.46 1.21-1.72 2.54-2.22 5.94-2.22 4.92 0 7.5 2.42 7.5 7.03 0 6.3-8.41 9.35-12.83 4.65z" fill="#050505"/></svg>